<svg width="38" height="38" viewBox="0 0 38 38" fill="none" xmlns="http://www.w3.org/2000/svg">
<path fill-rule="evenodd" clip-rule="evenodd" d="M37.6232 33.9908L35.0575 31.8289C34.5562 31.4066 33.7441 31.4066 33.2428 31.8289C32.7415 32.251 32.7415 32.9359 33.2428 33.358L33.6187 33.6748H9.01544L9.39146 33.358C9.89269 32.9359 9.89269 32.2511 9.39146 31.8289C8.89023 31.4066 8.07807 31.4066 7.57676 31.8289L5.01102 33.9908C4.75929 34.2026 4.63416 34.4914 4.63416 34.7561C4.63416 35.0264 4.7659 35.3152 5.01102 35.5213L7.57676 37.6833C8.07807 38.1056 8.89007 38.1056 9.39146 37.6833C9.89269 37.2612 9.89269 36.5762 9.39146 36.1541L9.01544 35.8374H33.6187L33.2428 36.1541C32.7415 36.5762 32.7415 37.2611 33.2428 37.6833C33.7441 38.1056 34.5561 38.1056 35.0575 37.6833L37.6232 35.5213C37.8746 35.3101 38 35.0213 38 34.7561C38 34.4786 37.8684 34.197 37.6232 33.9908Z" fill="#9B9B9B"/>
<path fill-rule="evenodd" clip-rule="evenodd" d="M4.642 26.7764L4.32517 27.1507V4.3614L4.642 4.7358C5.06439 5.23478 5.74856 5.23478 6.17101 4.7358C6.5934 4.23675 6.5934 3.4284 6.17101 2.92927L4.00841 0.374234C3.58608 -0.124745 2.90179 -0.124745 2.4794 0.374234L0.316858 2.92927C-0.105533 3.42833 -0.105533 4.23667 0.316858 4.7358C0.739185 5.23478 1.42348 5.23478 1.84587 4.7358L2.16263 4.3614V27.1507L1.84581 26.7763C1.42348 26.2774 0.739185 26.2774 0.316793 26.7763C-0.105598 27.2754 -0.105598 28.0837 0.316793 28.5829L2.47933 31.1379C2.90172 31.637 3.58589 31.637 4.00835 31.1379L6.17088 28.5829C6.59327 28.084 6.59327 27.2755 6.17095 26.7764C5.74862 26.2774 5.06432 26.2774 4.642 26.7764Z" fill="#9B9B9B"/>
<mask id="mask0_0_600" style="mask-type:alpha" maskUnits="userSpaceOnUse" x="11" y="0" width="27" height="29">
<path fill-rule="evenodd" clip-rule="evenodd" d="M11.1632 0H37.9906V28.6888H11.1632V0Z" fill="white"/>
</mask>
<g mask="url(#mask0_0_600)">
<path fill-rule="evenodd" clip-rule="evenodd" d="M31.8935 10.1255H37.9906V1.26571C37.9906 0.566523 37.4443 0 36.7711 0H20.1057V10.1255H26.2028C26.876 10.1255 27.4222 10.692 27.4222 11.3912C27.4222 12.0904 26.876 12.6569 26.2028 12.6569H20.1057V16.4539C20.1057 17.1531 19.5595 17.7197 18.8863 17.7197C18.2131 17.7197 17.6668 17.1531 17.6668 16.4539V0H12.3827C11.7095 0 11.1632 0.566523 11.1632 1.26571V27.4232C11.1632 28.1224 11.7095 28.6889 12.3827 28.6889H17.6668V22.3605C17.6668 21.6613 18.2131 21.0948 18.8863 21.0948C19.5595 21.0948 20.1057 21.6613 20.1057 22.3605V28.6889H36.7711C37.4443 28.6889 37.9906 28.1224 37.9906 27.4232V12.6569H31.8935C31.2203 12.6569 30.674 12.0904 30.674 11.3912C30.674 10.692 31.2202 10.1255 31.8935 10.1255Z" fill="#9B9B9B"/>
</g>
</svg>
