<svg width="39" height="38" viewBox="0 0 39 38" fill="none" xmlns="http://www.w3.org/2000/svg">
<path fill-rule="evenodd" clip-rule="evenodd" d="M36.908 34.6284L36.2941 33.1794C34.983 34.3284 33.3933 35.1666 31.6407 35.5779L32.7668 37.0434C33.2211 37.6345 33.9373 37.9873 34.683 37.9873C35.4957 37.9873 36.2487 37.5829 36.6975 36.9053C37.1463 36.2277 37.225 35.3766 36.908 34.6284Z" fill="#9B9B9B"/>
<path fill-rule="evenodd" clip-rule="evenodd" d="M2.69592 33.1794L2.08213 34.6284C1.76518 35.3767 1.84385 36.2279 2.29261 36.9053C2.74138 37.5827 3.49453 37.9873 4.30722 37.9873C5.05275 37.9873 5.76897 37.6344 6.22344 37.0432L7.34943 35.5778C5.59679 35.1666 4.00703 34.3284 2.69592 33.1794Z" fill="#9B9B9B"/>
<path fill-rule="evenodd" clip-rule="evenodd" d="M13.9442 4.08778H13.8193C13.511 1.78349 11.5336 0 9.14633 0H8.09436C5.49391 0 3.37817 2.11566 3.37817 4.71619V14.5944H5.6683V4.71611C5.6683 3.37842 6.75667 2.29005 8.09436 2.29005H9.14633C10.2668 2.29005 11.2117 3.05371 11.4894 4.0877H11.3044C9.4827 4.0877 8.00062 5.56978 8.00062 7.3915V9.32317C8.00062 9.93559 8.48183 10.4342 9.08655 10.4652C9.10627 10.4662 9.12569 10.4682 9.14564 10.4682H16.1028C16.7352 10.4682 17.2479 9.95554 17.2479 9.32317V7.39157C17.2479 5.56986 15.7659 4.08778 13.9442 4.08778Z" fill="#9B9B9B"/>
<path fill-rule="evenodd" clip-rule="evenodd" d="M1.28552 23.582V25.0352C1.28552 29.743 5.11553 33.5731 9.82334 33.5731H29.1667C33.8744 33.5731 37.7045 29.7431 37.7045 25.0352V23.582H1.28552Z" fill="#9B9B9B"/>
<mask id="mask0_0_580" style="mask-type:alpha" maskUnits="userSpaceOnUse" x="0" y="17" width="39" height="5">
<path fill-rule="evenodd" clip-rule="evenodd" d="M0 17.9805H38.99V21.275H0V17.9805Z" fill="white"/>
</mask>
<g mask="url(#mask0_0_580)">
<path fill-rule="evenodd" clip-rule="evenodd" d="M37.3428 17.9805H1.64717C0.738906 17.9805 0 18.7195 0 19.6278C0 20.5361 0.738906 21.275 1.64717 21.275H37.3428C38.2511 21.275 38.99 20.5361 38.99 19.6278C38.99 18.7195 38.2511 17.9805 37.3428 17.9805Z" fill="#9B9B9B"/>
</g>
</svg>
