<svg width="63" height="38" viewBox="0 0 63 38" fill="none" xmlns="http://www.w3.org/2000/svg">
<path fill-rule="evenodd" clip-rule="evenodd" d="M54.2238 18.6496H60.4014V13.0905C60.4014 11.936 59.46 10.9946 58.3056 10.9946H23.5078C23.6178 11.2214 23.7209 11.4482 23.824 11.6818C24.5248 13.3447 24.8821 15.1107 24.8821 16.9317C24.8821 17.5088 24.8477 18.0861 24.7721 18.6496H54.2238Z" fill="#9B9B9B"/>
<path fill-rule="evenodd" clip-rule="evenodd" d="M11.4 5.85474C11.1664 5.85474 10.9396 5.86161 10.7128 5.87535V18.6428H18.3472H22.3396C22.429 18.0793 22.4702 17.509 22.4702 16.9249C22.4702 14.7397 21.838 12.7058 20.7454 10.9947C18.787 7.90248 15.3306 5.85474 11.4 5.85474Z" fill="#9B9B9B"/>
<path fill-rule="evenodd" clip-rule="evenodd" d="M2.06148 38H6.24629C7.38698 38 8.30778 37.0792 8.30778 35.9385V29.3624H54.2239V35.9385C54.2239 37.0792 55.1447 38 56.2854 38H60.4702C61.6108 38 62.5316 37.0792 62.5316 35.9385V23.1161C62.5316 21.9753 61.6108 21.0546 60.4702 21.0546H54.2239H8.30778V6.29439V2.06148C8.30778 0.920796 7.38698 0 6.24629 0H2.06148C0.920796 0 0 0.920796 0 2.06148V9.73707V12.3826V21.4738V24.1193V35.9385C0 37.0723 0.920796 38 2.06148 38Z" fill="#9B9B9B"/>
</svg>
