<svg width="36" height="38" viewBox="0 0 36 38" fill="none" xmlns="http://www.w3.org/2000/svg">
<mask id="mask0_0_590" style="mask-type:alpha" maskUnits="userSpaceOnUse" x="0" y="0" width="36" height="15">
<path fill-rule="evenodd" clip-rule="evenodd" d="M0 0.808838H35.492V14.7593H0V0.808838Z" fill="white"/>
</mask>
<g mask="url(#mask0_0_590)">
<path fill-rule="evenodd" clip-rule="evenodd" d="M34.5807 11.0833L19.7526 1.39652C18.531 0.605796 16.9576 0.613881 15.7424 1.4135L0.898963 11.0914C-0.0219306 11.6986 -0.27742 12.938 0.328963 13.8597C0.936155 14.7814 2.17479 15.0369 3.09811 14.4289L17.7613 4.86746L32.4074 14.437C32.7446 14.6545 33.1197 14.7572 33.4916 14.7572C34.149 14.7572 34.7893 14.4362 35.1709 13.846C35.7716 12.9194 35.5065 11.684 34.5807 11.0833Z" fill="#9B9B9B"/>
</g>
<path fill-rule="evenodd" clip-rule="evenodd" d="M26.6835 30.8144C25.3196 30.8144 24.2135 29.7092 24.2135 28.3428C24.2135 26.978 25.3196 25.872 26.6835 25.872C28.0483 25.872 29.1551 26.9772 29.1551 28.3428C29.1551 29.7092 28.0483 30.8144 26.6835 30.8144ZM9.42504 21.9192L9.71045 18.9455C9.91823 16.7835 11.7123 15.1552 13.8848 15.1552H14.3303V16.0898C14.3303 16.9007 14.9747 17.5467 15.7848 17.5467H19.7109C20.521 17.5467 21.1767 16.9007 21.1767 16.0898V15.156H21.6109C23.7834 15.156 25.5775 16.7835 25.7844 18.9463L26.0707 21.92L9.42504 21.9192ZM8.80896 30.8144C7.445 30.8144 6.33896 29.7092 6.33896 28.3428C6.33896 26.978 7.445 25.872 8.80896 25.872C10.1737 25.872 11.2806 26.9772 11.2806 28.3428C11.2806 29.7092 10.1737 30.8144 8.80896 30.8144ZM30.8304 23.136C30.7083 22.4366 30.1003 21.9192 29.3912 21.9192H28.5762L28.2666 18.6956C27.9359 15.2481 25.0746 12.6399 21.6109 12.6399H13.8848C10.4203 12.6399 7.55981 15.249 7.22832 18.6956L6.91947 21.9192H6.10368C5.39381 21.9192 4.78662 22.4366 4.66291 23.136L3.45015 30.0116C3.29977 30.8637 3.5407 31.741 4.09696 32.4023C4.63219 33.0394 5.42049 33.4194 6.24517 33.4477V34.5893C6.24517 36.2056 7.5404 37.5073 9.15823 37.5073H10.0783C11.6945 37.5073 13.0092 36.2056 13.0092 34.5893V33.4655H22.4946V34.5869C22.4946 36.2039 23.7987 37.5073 25.415 37.5073H26.3359C27.9521 37.5073 29.2578 36.2039 29.2578 34.5869V33.4477C30.0825 33.4194 30.8659 33.0427 31.3996 32.4064C31.9558 31.7426 32.1935 30.8702 32.0447 30.0172L30.8304 23.136Z" fill="#9B9B9B"/>
</svg>
