<svg width="83" height="19" viewBox="0 0 83 19" fill="none" xmlns="http://www.w3.org/2000/svg">
<path d="M30.8059 15C30.6459 15 30.5179 14.9627 30.4219 14.888C30.3366 14.8133 30.2673 14.712 30.2139 14.584L26.6459 4.296C26.6246 4.232 26.6139 4.17333 26.6139 4.12C26.6139 4.03467 26.6459 3.96 26.7099 3.896C26.7739 3.832 26.8486 3.8 26.9339 3.8H27.7659C27.8939 3.8 27.9899 3.83733 28.0539 3.912C28.1286 3.976 28.1713 4.03467 28.1819 4.088L31.3179 13.16L34.4539 4.088C34.4753 4.03467 34.5179 3.976 34.5819 3.912C34.6459 3.83733 34.7419 3.8 34.8699 3.8H35.7019C35.7873 3.8 35.8619 3.832 35.9259 3.896C36.0006 3.96 36.0379 4.03467 36.0379 4.12C36.0379 4.17333 36.0273 4.232 36.0059 4.296L32.4219 14.584C32.3793 14.712 32.3099 14.8133 32.2139 14.888C32.1286 14.9627 32.0059 15 31.8459 15H30.8059ZM40.2226 15.16C39.1239 15.16 38.2492 14.824 37.5986 14.152C36.9479 13.4693 36.5906 12.5413 36.5266 11.368C36.5159 11.2293 36.5106 11.0533 36.5106 10.84C36.5106 10.616 36.5159 10.4347 36.5266 10.296C36.5692 9.53867 36.7452 8.87733 37.0546 8.312C37.3639 7.736 37.7852 7.29333 38.3186 6.984C38.8626 6.67467 39.4972 6.52 40.2226 6.52C41.0332 6.52 41.7106 6.69067 42.2546 7.032C42.8092 7.37333 43.2306 7.85867 43.5186 8.488C43.8066 9.11733 43.9506 9.85333 43.9506 10.696V10.968C43.9506 11.0853 43.9132 11.176 43.8386 11.24C43.7746 11.304 43.6892 11.336 43.5826 11.336H38.0466C38.0466 11.3467 38.0466 11.368 38.0466 11.4C38.0466 11.432 38.0466 11.4587 38.0466 11.48C38.0679 11.9173 38.1639 12.328 38.3346 12.712C38.5052 13.0853 38.7506 13.3893 39.0706 13.624C39.3906 13.8587 39.7746 13.976 40.2226 13.976C40.6066 13.976 40.9266 13.9173 41.1826 13.8C41.4386 13.6827 41.6466 13.5547 41.8066 13.416C41.9666 13.2667 42.0732 13.1547 42.1266 13.08C42.2226 12.9413 42.2972 12.8613 42.3506 12.84C42.4039 12.808 42.4892 12.792 42.6066 12.792H43.3746C43.4812 12.792 43.5666 12.824 43.6306 12.888C43.7052 12.9413 43.7372 13.0213 43.7266 13.128C43.7159 13.288 43.6306 13.4853 43.4706 13.72C43.3106 13.944 43.0812 14.168 42.7826 14.392C42.4839 14.616 42.1212 14.8027 41.6946 14.952C41.2679 15.0907 40.7772 15.16 40.2226 15.16ZM38.0466 10.232H42.4306V10.184C42.4306 9.704 42.3399 9.27733 42.1586 8.904C41.9879 8.53067 41.7372 8.23733 41.4066 8.024C41.0759 7.8 40.6812 7.688 40.2226 7.688C39.7639 7.688 39.3692 7.8 39.0386 8.024C38.7186 8.23733 38.4732 8.53067 38.3026 8.904C38.1319 9.27733 38.0466 9.704 38.0466 10.184V10.232ZM46.2317 15C46.125 15 46.0344 14.968 45.9597 14.904C45.8957 14.8293 45.8637 14.7387 45.8637 14.632V7.064C45.8637 6.95733 45.8957 6.86667 45.9597 6.792C46.0344 6.71733 46.125 6.68 46.2317 6.68H46.9677C47.0744 6.68 47.165 6.71733 47.2397 6.792C47.3144 6.86667 47.3517 6.95733 47.3517 7.064V7.768C47.565 7.40533 47.8584 7.13333 48.2317 6.952C48.605 6.77067 49.053 6.68 49.5757 6.68H50.2157C50.3224 6.68 50.4077 6.71733 50.4717 6.792C50.5357 6.856 50.5677 6.94133 50.5677 7.048V7.704C50.5677 7.81067 50.5357 7.896 50.4717 7.96C50.4077 8.024 50.3224 8.056 50.2157 8.056H49.2557C48.6797 8.056 48.2264 8.22667 47.8957 8.568C47.565 8.89867 47.3997 9.352 47.3997 9.928V14.632C47.3997 14.7387 47.3624 14.8293 47.2877 14.904C47.213 14.968 47.1224 15 47.0157 15H46.2317ZM52.3098 15C52.2031 15 52.1125 14.968 52.0378 14.904C51.9738 14.8293 51.9418 14.7387 51.9418 14.632V7.048C51.9418 6.94133 51.9738 6.856 52.0378 6.792C52.1125 6.71733 52.2031 6.68 52.3098 6.68H53.0778C53.1845 6.68 53.2698 6.71733 53.3338 6.792C53.3978 6.856 53.4298 6.94133 53.4298 7.048V14.632C53.4298 14.7387 53.3978 14.8293 53.3338 14.904C53.2698 14.968 53.1845 15 53.0778 15H52.3098ZM52.1818 5.128C52.0751 5.128 51.9845 5.096 51.9098 5.032C51.8458 4.95733 51.8138 4.86667 51.8138 4.76V3.896C51.8138 3.78933 51.8458 3.704 51.9098 3.64C51.9845 3.56533 52.0751 3.528 52.1818 3.528H53.1898C53.2965 3.528 53.3818 3.56533 53.4458 3.64C53.5205 3.704 53.5578 3.78933 53.5578 3.896V4.76C53.5578 4.86667 53.5205 4.95733 53.4458 5.032C53.3818 5.096 53.2965 5.128 53.1898 5.128H52.1818ZM57.0168 15C56.9101 15 56.8195 14.968 56.7448 14.904C56.6808 14.8293 56.6488 14.7387 56.6488 14.632V7.96H55.2888C55.1821 7.96 55.0915 7.928 55.0168 7.864C54.9528 7.78933 54.9208 7.69867 54.9208 7.592V7.048C54.9208 6.94133 54.9528 6.856 55.0168 6.792C55.0915 6.71733 55.1821 6.68 55.2888 6.68H56.6488V5.88C56.6488 5.336 56.7395 4.86133 56.9208 4.456C57.1021 4.04 57.3901 3.72 57.7848 3.496C58.1901 3.272 58.7288 3.16 59.4008 3.16H61.8648C61.9715 3.16 62.0568 3.19733 62.1208 3.272C62.1955 3.336 62.2328 3.42133 62.2328 3.528V4.072C62.2328 4.17867 62.1955 4.26933 62.1208 4.344C62.0568 4.408 61.9715 4.44 61.8648 4.44H59.4328C58.9315 4.44 58.5901 4.57333 58.4088 4.84C58.2275 5.096 58.1368 5.46933 58.1368 5.96V6.68H61.8648C61.9715 6.68 62.0568 6.71733 62.1208 6.792C62.1955 6.856 62.2328 6.94133 62.2328 7.048V14.632C62.2328 14.7387 62.1955 14.8293 62.1208 14.904C62.0568 14.968 61.9715 15 61.8648 15H61.1288C61.0115 15 60.9208 14.968 60.8568 14.904C60.7928 14.8293 60.7608 14.7387 60.7608 14.632V7.96H58.1368V14.632C58.1368 14.7387 58.0995 14.8293 58.0248 14.904C57.9608 14.968 57.8755 15 57.7688 15H57.0168ZM67.9413 15.16C66.8426 15.16 65.968 14.824 65.3173 14.152C64.6666 13.4693 64.3093 12.5413 64.2453 11.368C64.2346 11.2293 64.2293 11.0533 64.2293 10.84C64.2293 10.616 64.2346 10.4347 64.2453 10.296C64.288 9.53867 64.464 8.87733 64.7733 8.312C65.0826 7.736 65.504 7.29333 66.0373 6.984C66.5813 6.67467 67.216 6.52 67.9413 6.52C68.752 6.52 69.4293 6.69067 69.9733 7.032C70.528 7.37333 70.9493 7.85867 71.2373 8.488C71.5253 9.11733 71.6693 9.85333 71.6693 10.696V10.968C71.6693 11.0853 71.632 11.176 71.5573 11.24C71.4933 11.304 71.408 11.336 71.3013 11.336H65.7653C65.7653 11.3467 65.7653 11.368 65.7653 11.4C65.7653 11.432 65.7653 11.4587 65.7653 11.48C65.7866 11.9173 65.8826 12.328 66.0533 12.712C66.224 13.0853 66.4693 13.3893 66.7893 13.624C67.1093 13.8587 67.4933 13.976 67.9413 13.976C68.3253 13.976 68.6453 13.9173 68.9013 13.8C69.1573 13.6827 69.3653 13.5547 69.5253 13.416C69.6853 13.2667 69.792 13.1547 69.8453 13.08C69.9413 12.9413 70.016 12.8613 70.0693 12.84C70.1226 12.808 70.208 12.792 70.3253 12.792H71.0933C71.2 12.792 71.2853 12.824 71.3493 12.888C71.424 12.9413 71.456 13.0213 71.4453 13.128C71.4346 13.288 71.3493 13.4853 71.1893 13.72C71.0293 13.944 70.8 14.168 70.5013 14.392C70.2026 14.616 69.84 14.8027 69.4133 14.952C68.9866 15.0907 68.496 15.16 67.9413 15.16ZM65.7653 10.232H70.1493V10.184C70.1493 9.704 70.0586 9.27733 69.8773 8.904C69.7066 8.53067 69.456 8.23733 69.1253 8.024C68.7946 7.8 68.4 7.688 67.9413 7.688C67.4826 7.688 67.088 7.8 66.7573 8.024C66.4373 8.23733 66.192 8.53067 66.0213 8.904C65.8506 9.27733 65.7653 9.704 65.7653 10.184V10.232ZM76.6224 15.16C76.0358 15.16 75.5291 15.0587 75.1024 14.856C74.6758 14.6427 74.3238 14.36 74.0464 14.008C73.7798 13.6453 73.5771 13.2347 73.4384 12.776C73.3104 12.3173 73.2358 11.832 73.2144 11.32C73.2038 11.1493 73.1984 10.9893 73.1984 10.84C73.1984 10.6907 73.2038 10.5307 73.2144 10.36C73.2358 9.85867 73.3104 9.37867 73.4384 8.92C73.5771 8.46133 73.7798 8.05067 74.0464 7.688C74.3238 7.32533 74.6758 7.04267 75.1024 6.84C75.5291 6.62667 76.0358 6.52 76.6224 6.52C77.2518 6.52 77.7744 6.632 78.1904 6.856C78.6064 7.08 78.9478 7.35733 79.2144 7.688V4.008C79.2144 3.90133 79.2464 3.816 79.3104 3.752C79.3851 3.67733 79.4758 3.64 79.5824 3.64H80.3504C80.4571 3.64 80.5424 3.67733 80.6064 3.752C80.6811 3.816 80.7184 3.90133 80.7184 4.008V14.632C80.7184 14.7387 80.6811 14.8293 80.6064 14.904C80.5424 14.968 80.4571 15 80.3504 15H79.6304C79.5131 15 79.4224 14.968 79.3584 14.904C79.2944 14.8293 79.2624 14.7387 79.2624 14.632V13.96C78.9958 14.3013 78.6491 14.5893 78.2224 14.824C77.7958 15.048 77.2624 15.16 76.6224 15.16ZM76.9584 13.864C77.4918 13.864 77.9184 13.7413 78.2384 13.496C78.5584 13.2507 78.7984 12.9413 78.9584 12.568C79.1184 12.184 79.2038 11.7947 79.2144 11.4C79.2251 11.2293 79.2304 11.0267 79.2304 10.792C79.2304 10.5467 79.2251 10.3387 79.2144 10.168C79.2038 9.79467 79.1131 9.42667 78.9424 9.064C78.7824 8.70133 78.5371 8.40267 78.2064 8.168C77.8864 7.93333 77.4704 7.816 76.9584 7.816C76.4144 7.816 75.9824 7.93867 75.6624 8.184C75.3424 8.41867 75.1131 8.73333 74.9744 9.128C74.8358 9.512 74.7558 9.928 74.7344 10.376C74.7238 10.6853 74.7238 10.9947 74.7344 11.304C74.7558 11.752 74.8358 12.1733 74.9744 12.568C75.1131 12.952 75.3424 13.2667 75.6624 13.512C75.9824 13.7467 76.4144 13.864 76.9584 13.864Z" fill="#676767"/>
<mask id="mask0_0_426" style="mask-type:alpha" maskUnits="userSpaceOnUse" x="0" y="0" width="16" height="19">
<path fill-rule="evenodd" clip-rule="evenodd" d="M16 0H0.0450764V19H16V0Z" fill="white"/>
</mask>
<g mask="url(#mask0_0_426)">
<path fill-rule="evenodd" clip-rule="evenodd" d="M0.0889835 2.97011C3.37751 2.97011 5.89654 2.04195 8.02255 0C10.154 2.04195 12.6731 2.97011 15.9561 2.97011C15.9561 8.28793 17.0745 15.9043 8.02255 19C-1.02936 15.9043 0.0889835 8.28793 0.0889835 2.97011" fill="#00C9A7"/>
</g>
<mask id="mask1_0_426" style="mask-type:alpha" maskUnits="userSpaceOnUse" x="0" y="0" width="8" height="19">
<path fill-rule="evenodd" clip-rule="evenodd" d="M7.99487 0H0.0449138V19H7.99487V0Z" fill="white"/>
</mask>
<g mask="url(#mask1_0_426)">
<path fill-rule="evenodd" clip-rule="evenodd" d="M0.088666 2.97011C3.36585 2.97011 5.8762 2.04195 7.99487 0V19C-1.02582 15.9043 0.088666 8.28793 0.088666 2.97011" fill="#02AD8C"/>
</g>
<path fill-rule="evenodd" clip-rule="evenodd" d="M10.1276 14L14 10.2364L11.8673 8.16364L10.1276 9.85455L5.13265 5L3 7.07273L10.1276 14Z" fill="#F1F1F2"/>
<path fill-rule="evenodd" clip-rule="evenodd" d="M8 12L3 6.966L4.95272 5L8 8.068V12Z" fill="#E6E6E6"/>
</svg>
